<?xml version="1.0" encoding="UTF-8" standalone="no" ?>
<!DOCTYPE svg PUBLIC "-//W3C//DTD SVG 1.1//EN" "http://www.w3.org/Graphics/SVG/1.1/DTD/svg11.dtd">
<svg xmlns="http://www.w3.org/2000/svg" xmlns:xlink="http://www.w3.org/1999/xlink" version="1.1" width="400" height="400" viewBox="0 0 100 100" xml:space="preserve">
<desc>Created with Fabric.js 5.3.0</desc>
<defs>
</defs>
<g transform="matrix(0.1874628613 0 0 0.1874628613 86.5213271756 49.9782543081)" id="S0zng06XtUq5DjfTUpaCZ"  >
<path style="stroke: none; stroke-width: 1; stroke-dasharray: none; stroke-linecap: butt; stroke-dashoffset: 0; stroke-linejoin: round; stroke-miterlimit: 2; fill: rgb(255,255,255); fill-rule: evenodd; opacity: 1;"  transform=" translate(0, 0)" d="M -2.641 -76.867 C -1.235 -76.867 0.11399999999999988 -76.308 1.1070000000000002 -75.31400000000001 C 2.101 -74.32000000000001 2.66 -72.97200000000001 2.66 -71.566 L 2.66 106.01599999999999 C 2.66 113.746 5.73 121.16 11.197000000000001 126.627 C 16.663 132.093 24.076 135.16299999999998 31.806000000000004 135.16299999999998 L 31.809000000000005 135.16299999999998 C 39.540000000000006 135.16299999999998 46.953 132.093 52.419000000000004 126.62699999999998 C 57.885000000000005 121.15999999999998 60.956 113.74599999999998 60.956 106.01599999999998 L 60.956 -108.66000000000001 C 60.956 -123.29700000000001 49.09 -135.163 34.453 -135.163 L -31.808999999999997 -135.163 C -39.539 -135.163 -46.952999999999996 -132.092 -52.419 -126.626 C -57.885999999999996 -121.16000000000001 -60.955999999999996 -113.74600000000001 -60.955999999999996 -106.017 L -60.955999999999996 -106.01299999999999 C -60.955999999999996 -98.28299999999999 -57.885999999999996 -90.86999999999999 -52.419 -85.40299999999999 C -46.952999999999996 -79.937 -39.538999999999994 -76.86699999999999 -31.808999999999997 -76.86699999999999 L -2.6409999999999982 -76.86699999999999 z" stroke-linecap="round" />
</g>
<g transform="matrix(0.1874628613 0 0 0.1874628613 54.3489509193 49.979097891)" id="RA3WA7ZyW7xa-vpdTfKRJ"  >
<path style="stroke: none; stroke-width: 1; stroke-dasharray: none; stroke-linecap: butt; stroke-dashoffset: 0; stroke-linejoin: round; stroke-miterlimit: 2; fill: rgb(255,255,255); fill-rule: nonzero; opacity: 1;"  transform=" translate(0, 0)" d="M 0 135.1625 C -22.039 135.1625 -41.349 129.52349999999998 -57.929 118.24449999999999 C -74.51 106.96549999999999 -87.435 91.1625 -96.70400000000001 70.83449999999999 C -105.97200000000001 50.50749999999999 -110.60700000000001 26.83449999999999 -110.60700000000001 -0.18550000000000466 C -110.60700000000001 -27.453500000000005 -106.02400000000002 -51.1895 -96.85800000000002 -71.3925 C -87.69200000000002 -91.5955 -74.76800000000001 -107.27449999999999 -58.08400000000002 -118.42949999999999 C -41.40000000000002 -129.5855 -22.039000000000016 -135.1625 -1.4210854715202004e-14 -135.1625 C 22.038999999999987 -135.1625 41.34899999999998 -129.5855 57.929999999999986 -118.42949999999999 C 74.50999999999999 -107.27449999999999 87.43499999999999 -91.59549999999999 96.70399999999998 -71.39249999999998 C 105.97299999999998 -51.18949999999998 110.60699999999999 -27.453499999999984 110.60699999999999 -0.18549999999999045 C 110.60699999999999 26.83450000000001 105.97299999999998 50.50750000000001 96.70399999999998 70.8345 C 87.43499999999997 91.16250000000001 74.50999999999998 106.9655 57.92999999999998 118.2445 C 41.348999999999975 129.5235 22.03899999999998 135.1625 -2.1316282072803006e-14 135.1625 z M 0 77.8995 C 16.066 77.8995 28.682 71.0205 37.847 57.2625 C 47.013000000000005 43.50450000000001 51.596000000000004 24.355500000000006 51.596000000000004 -0.18549999999999756 C 51.596000000000004 -24.7275 47.065000000000005 -43.814499999999995 38.002 -57.448499999999996 C 28.939 -71.0825 16.272000000000002 -77.89949999999999 0 -77.89949999999999 C -16.272 -77.89949999999999 -28.939 -71.08249999999998 -38.002 -57.44849999999999 C -47.064 -43.81449999999999 -51.596000000000004 -24.727499999999992 -51.596000000000004 -0.18549999999999045 C -51.596000000000004 24.35550000000001 -47.06400000000001 43.50450000000001 -38.002 57.26250000000001 C -28.939 71.02050000000001 -16.272000000000002 77.89950000000002 0 77.89950000000002 z" stroke-linecap="round" />
</g>
<g transform="matrix(0.1874628613 0 0 0.1874628613 28.2056614767 49.9999779188)" id="PE8eO7xM_Ln-ktOxBwBex"  >
<path style="stroke: none; stroke-width: 1; stroke-dasharray: none; stroke-linecap: butt; stroke-dashoffset: 0; stroke-linejoin: round; stroke-miterlimit: 2; fill: rgb(255,255,255); fill-rule: evenodd; opacity: 1;"  transform=" translate(0, 0)" d="M 91.9055 245.53812 C 101.6245 251.35312 113.7215 251.49312 123.5735 245.90612 C 133.4255 240.31712 139.5145 229.86512 139.5145 218.53812 C 139.5145 209.95112 135.9565 201.74812 129.6855 195.88212 C 94.7605 163.23211999999998 -23.0925 52.872119999999995 -57.67450000000002 18.170119999999997 C -67.92850000000003 7.880119999999998 -67.91350000000003 -8.769880000000004 -57.64150000000002 -19.04088 C -57.64150000000002 -19.04088 89.85349999999998 -158.15988 129.69549999999998 -195.73988000000003 C 135.96249999999998 -201.64988000000002 139.51449999999997 -209.88388000000003 139.51449999999997 -218.49688000000003 L 139.51449999999997 -218.49988000000002 C 139.51449999999997 -229.83188 133.42649999999998 -240.29088000000002 123.57349999999997 -245.88888000000003 C 113.71949999999997 -251.48688000000004 101.61849999999997 -251.35988000000003 91.88449999999997 -245.55688000000004 C 83.75149999999998 -240.70788000000005 76.25149999999998 -234.86988000000002 69.55749999999998 -228.17588000000003 L 32.442499999999974 -191.06188000000003 C 31.505499999999973 -190.12388000000004 30.233499999999975 -189.59688000000003 28.907499999999974 -189.59688000000003 C 27.581499999999973 -189.59688000000003 26.309499999999975 -190.12388 25.372499999999974 -191.06188000000003 C 13.928499999999973 -202.50688000000002 -21.371500000000026 -237.80488000000003 -21.371500000000026 -237.80488000000003 C -26.803500000000028 -243.23788000000002 -34.17250000000003 -246.28888000000003 -41.85450000000003 -246.28888000000003 C -49.53750000000003 -246.28888000000003 -56.90550000000003 -243.23788000000005 -62.337500000000034 -237.80488000000003 C -73.65150000000003 -226.49188000000004 -73.65150000000003 -208.14988000000002 -62.337500000000034 -196.83688 C -62.337500000000034 -196.83688 -27.039500000000032 -161.53888 -15.595500000000037 -150.09488000000002 C -14.657500000000036 -149.15588000000002 -14.131500000000036 -147.88488 -14.131500000000036 -146.55888000000002 C -14.131500000000036 -145.23188000000002 -14.657500000000036 -143.96088 -15.595500000000037 -143.02288000000001 C -20.875500000000038 -137.74388000000002 -30.761500000000037 -127.85788000000002 -36.04050000000004 -122.57788000000002 C -36.97850000000004 -121.63988000000002 -38.24950000000004 -121.11388000000002 -39.57650000000004 -121.11388000000002 C -40.90250000000004 -121.11388000000002 -42.17350000000004 -121.63988000000002 -43.111500000000035 -122.57788000000002 C -54.556500000000035 -134.02288000000001 -89.85550000000003 -169.32288000000003 -89.85550000000003 -169.32288000000003 C -101.16850000000004 -180.63488000000004 -119.50950000000003 -180.63488000000004 -130.82050000000004 -169.32288000000003 C -130.82150000000004 -169.32188000000002 -130.82150000000004 -169.32188000000002 -130.82250000000005 -169.32188000000002 C -136.25550000000004 -163.88788000000002 -139.30650000000006 -156.52088000000003 -139.30650000000006 -148.83688 C -139.30650000000006 -141.15488000000002 -136.25550000000007 -133.78588000000002 -130.82250000000005 -128.35388 C -130.82250000000005 -128.35388 -95.52450000000005 -93.05488 -84.07950000000005 -81.60988 C -82.12750000000005 -79.65788 -82.12750000000005 -76.49188000000001 -84.07950000000005 -74.53988000000001 C -93.35050000000005 -65.26888000000001 -117.64750000000005 -40.97088000000001 -117.64750000000005 -40.97088000000001 C -140.27350000000004 -18.344880000000007 -140.27350000000004 18.339119999999994 -117.64750000000005 40.964119999999994 C -117.64750000000005 40.964119999999994 -93.60650000000005 65.00612 -84.39150000000005 74.22012 C -82.43850000000005 76.17312 -82.43850000000005 79.33912 -84.39150000000005 81.29212 C -95.82050000000005 92.72012 -131.03050000000005 127.93011999999999 -131.03050000000005 127.93011999999999 C -136.46250000000003 133.36211999999998 -139.51450000000006 140.73111999999998 -139.51450000000006 148.41312 C -139.51450000000006 156.09712 -136.46250000000006 163.46411999999998 -131.03050000000005 168.89812 C -119.71650000000005 180.21012000000002 -101.37450000000004 180.21012000000002 -90.06250000000004 168.89812 C -90.06250000000004 168.89812 -54.85250000000004 133.68812 -43.424500000000045 122.25912 C -42.48650000000004 121.32112 -41.214500000000044 120.79411999999999 -39.887500000000045 120.79411999999999 C -38.56250000000004 120.79411999999999 -37.290500000000044 121.32112 -36.35250000000005 122.25912 C -31.00950000000005 127.60112 -20.938500000000047 137.67412 -15.595500000000047 143.01712 C -13.642500000000048 144.96912 -13.642500000000048 148.13512 -15.595500000000047 150.08712 C -27.02350000000005 161.51612 -62.23350000000005 196.72512 -62.23350000000005 196.72512 C -67.66650000000004 202.15912 -70.71850000000005 209.52612 -70.71850000000005 217.21012000000002 C -70.71850000000005 224.89212 -67.66650000000004 232.26112 -62.23350000000005 237.69312000000002 C -50.92150000000005 249.00712000000001 -32.57950000000005 249.00712000000001 -21.265500000000046 237.69312000000002 C -21.265500000000046 237.69312000000002 13.944499999999955 202.48312 25.372499999999953 191.05512000000002 C 26.309499999999954 190.11812 27.581499999999952 189.59112000000002 28.907499999999953 189.59112000000002 C 30.233499999999953 189.59112000000002 31.50549999999995 190.11812 32.44249999999995 191.05512000000002 L 69.31049999999996 227.92312 C 76.08949999999996 234.70212 83.67849999999996 240.61812 91.90449999999996 245.53812000000002 L 91.90549999999996 245.53812000000002 z" stroke-linecap="round" />
</g>
</svg>