<?xml version="1.0" encoding="UTF-8" standalone="no"?>
<svg
   class="main-svg"
   width="620"
   height="300"
   viewBox="0 0 620 300"
   version="1.1"
   id="svg104"
   sodipodi:docname="Plot_BoxPlot.svg"
   inkscape:version="1.3 (0e150ed6c4, 2023-07-21)"
   xmlns:inkscape="http://www.inkscape.org/namespaces/inkscape"
   xmlns:sodipodi="http://sodipodi.sourceforge.net/DTD/sodipodi-0.dtd"
   xmlns="http://www.w3.org/2000/svg"
   xmlns:svg="http://www.w3.org/2000/svg">
  <sodipodi:namedview
     id="namedview104"
     pagecolor="#ffffff"
     bordercolor="#000000"
     borderopacity="0.25"
     inkscape:showpageshadow="2"
     inkscape:pageopacity="0.0"
     inkscape:pagecheckerboard="0"
     inkscape:deskcolor="#d1d1d1"
     inkscape:zoom="1.7888889"
     inkscape:cx="308.85093"
     inkscape:cy="141.70807"
     inkscape:window-width="1920"
     inkscape:window-height="1011"
     inkscape:window-x="0"
     inkscape:window-y="0"
     inkscape:window-maximized="1"
     inkscape:current-layer="svg104" />
  <defs
     id="defs-32ca02">
    <g
       class="clips"
       id="g5">
      <clipPath
         id="clip32ca02xyplot"
         class="plotclip">
        <rect
           width="447"
           height="270"
           id="rect2"
           x="0"
           y="0" />
      </clipPath>
      <clipPath
         class="axesclip"
         id="clip32ca02x">
        <rect
           x="80"
           y="0"
           width="447"
           height="450"
           id="rect3" />
      </clipPath>
      <clipPath
         class="axesclip"
         id="clip32ca02y">
        <rect
           x="0"
           y="100"
           width="640"
           height="270"
           id="rect4" />
      </clipPath>
      <clipPath
         class="axesclip"
         id="clip32ca02xy">
        <rect
           x="80"
           y="100"
           width="447"
           height="270"
           id="rect5" />
      </clipPath>
    </g>
    <g
       class="gradients"
       id="g6" />
    <g
       class="patterns"
       id="g7" />
  </defs>
  <g
     class="bglayer"
     id="g8" />
  <g
     class="layer-below"
     id="g11">
    <g
       class="imagelayer"
       id="g9" />
    <g
       class="shapelayer"
       id="g10" />
  </g>
  <g
     class="cartesianlayer"
     id="g71"
     transform="translate(-14.282479,-90.880061)">
    <g
       class="subplot xy"
       id="g70">
      <g
         class="layer-subplot"
         id="g14">
        <g
           class="shapelayer"
           id="g12" />
        <g
           class="imagelayer"
           id="g13" />
      </g>
      <g
         class="minor-gridlayer"
         id="g17">
        <g
           class="x"
           id="g15" />
        <g
           class="y"
           id="g16" />
      </g>
      <g
         class="gridlayer"
         id="g23">
        <g
           class="x"
           id="g18" />
        <g
           class="y"
           id="g22">
          <path
             class="ygrid crisp"
             transform="translate(0,307.9)"
             d="M 80,0 H 527"
             style="stroke:#eeeeee;stroke-width:1px;stroke-opacity:1"
             id="path18" />
          <path
             class="ygrid crisp"
             transform="translate(0,259.3)"
             d="M 80,0 H 527"
             style="stroke:#eeeeee;stroke-width:1px;stroke-opacity:1"
             id="path19" />
          <path
             class="ygrid crisp"
             transform="translate(0,210.7)"
             d="M 80,0 H 527"
             style="stroke:#eeeeee;stroke-width:1px;stroke-opacity:1"
             id="path20" />
          <path
             class="ygrid crisp"
             transform="translate(0,162.1)"
             d="M 80,0 H 527"
             style="stroke:#eeeeee;stroke-width:1px;stroke-opacity:1"
             id="path21" />
          <path
             class="ygrid crisp"
             transform="translate(0,113.5)"
             d="M 80,0 H 527"
             style="stroke:#eeeeee;stroke-width:1px;stroke-opacity:1"
             id="path22" />
        </g>
      </g>
      <g
         class="zerolinelayer"
         id="g24">
        <path
           class="yzl zl crisp"
           transform="translate(0,356.5)"
           d="M 80,0 H 527"
           style="stroke:#444444;stroke-width:1px;stroke-opacity:1"
           id="path23" />
      </g>
      <path
         class="xlines-below"
         id="path24"
         d="" />
      <path
         class="ylines-below"
         id="path25"
         d="" />
      <g
         class="overlines-below"
         id="g25" />
      <g
         class="xaxislayer-below"
         id="g26" />
      <g
         class="yaxislayer-below"
         id="g27" />
      <g
         class="overaxes-below"
         id="g28" />
      <g
         class="plot"
         transform="translate(80,100)"
         clip-path="url(#clip32ca02xyplot)"
         id="g56">
        <g
           class="boxlayer mlayer"
           id="g55">
          <g
             class="trace boxes"
             style="opacity:1"
             id="g41">
            <path
               class="box"
               d="m 78.77,232.2 h 97.12 m -97.12,24.3 h 97.12 V 207.9 H 78.77 Z m 48.56,0 v 0 m 0,-48.6 v -48.6 m -24.28,97.2 h 48.56 m -48.56,-97.2 h 48.56"
               style="vector-effect:none;fill:#3730a3;fill-opacity:0.5;stroke:#3730a3;stroke-width:2px;stroke-opacity:1"
               id="path28" />
            <g
               class="points"
               id="g40">
              <path
                 class="point"
                 transform="translate(47.48,256.5)"
                 d="M 3,0 A 3,3 0 1 1 0,-3 3,3 0 0 1 3,0 Z"
                 style="opacity:1;fill:#3730a3;fill-opacity:1;stroke-width:0px"
                 id="path29" />
              <path
                 class="point"
                 transform="translate(37.64,256.5)"
                 d="M 3,0 A 3,3 0 1 1 0,-3 3,3 0 0 1 3,0 Z"
                 style="opacity:1;fill:#3730a3;fill-opacity:1;stroke-width:0px"
                 id="path30" />
              <path
                 class="point"
                 transform="translate(42.91,256.5)"
                 d="M 3,0 A 3,3 0 1 1 0,-3 3,3 0 0 1 3,0 Z"
                 style="opacity:1;fill:#3730a3;fill-opacity:1;stroke-width:0px"
                 id="path31" />
              <path
                 class="point"
                 transform="translate(36.43,256.5)"
                 d="M 3,0 A 3,3 0 1 1 0,-3 3,3 0 0 1 3,0 Z"
                 style="opacity:1;fill:#3730a3;fill-opacity:1;stroke-width:0px"
                 id="path32" />
              <path
                 class="point"
                 transform="translate(38.84,256.5)"
                 d="M 3,0 A 3,3 0 1 1 0,-3 3,3 0 0 1 3,0 Z"
                 style="opacity:1;fill:#3730a3;fill-opacity:1;stroke-width:0px"
                 id="path33" />
              <path
                 class="point"
                 transform="translate(42.34,256.5)"
                 d="M 3,0 A 3,3 0 1 1 0,-3 3,3 0 0 1 3,0 Z"
                 style="opacity:1;fill:#3730a3;fill-opacity:1;stroke-width:0px"
                 id="path34" />
              <path
                 class="point"
                 transform="translate(39.8,207.9)"
                 d="M 3,0 A 3,3 0 1 1 0,-3 3,3 0 0 1 3,0 Z"
                 style="opacity:1;fill:#3730a3;fill-opacity:1;stroke-width:0px"
                 id="path35" />
              <path
                 class="point"
                 transform="translate(40.81,207.9)"
                 d="M 3,0 A 3,3 0 1 1 0,-3 3,3 0 0 1 3,0 Z"
                 style="opacity:1;fill:#3730a3;fill-opacity:1;stroke-width:0px"
                 id="path36" />
              <path
                 class="point"
                 transform="translate(38.99,207.9)"
                 d="M 3,0 A 3,3 0 1 1 0,-3 3,3 0 0 1 3,0 Z"
                 style="opacity:1;fill:#3730a3;fill-opacity:1;stroke-width:0px"
                 id="path37" />
              <path
                 class="point"
                 transform="translate(37.92,207.9)"
                 d="M 3,0 A 3,3 0 1 1 0,-3 3,3 0 0 1 3,0 Z"
                 style="opacity:1;fill:#3730a3;fill-opacity:1;stroke-width:0px"
                 id="path38" />
              <path
                 class="point"
                 transform="translate(40.59,207.9)"
                 d="M 3,0 A 3,3 0 1 1 0,-3 3,3 0 0 1 3,0 Z"
                 style="opacity:1;fill:#3730a3;fill-opacity:1;stroke-width:0px"
                 id="path39" />
              <path
                 class="point"
                 transform="translate(38.85,159.3)"
                 d="M 3,0 A 3,3 0 1 1 0,-3 3,3 0 0 1 3,0 Z"
                 style="opacity:1;fill:#3730a3;fill-opacity:1;stroke-width:0px"
                 id="path40" />
            </g>
          </g>
          <g
             class="trace boxes"
             style="opacity:1"
             id="g54">
            <path
               class="box"
               d="m 276.98,110.7 h 97.13 m -97.13,48.6 h 97.13 V 62.1 h -97.13 z m 48.56,0 v 97.2 m 0,-194.4 V 13.5 m -24.28,243 h 48.56 m -48.56,-243 h 48.56"
               style="vector-effect:none;fill:#a1a1aa;fill-opacity:0.5;stroke:#a1a1aa;stroke-width:2px;stroke-opacity:1"
               id="path41" />
            <g
               class="points"
               id="g53">
              <path
                 class="point"
                 transform="translate(243.48,256.5)"
                 d="M 3,0 A 3,3 0 1 1 0,-3 3,3 0 0 1 3,0 Z"
                 style="opacity:1;fill:#a1a1aa;fill-opacity:1;stroke-width:0px"
                 id="path42" />
              <path
                 class="point"
                 transform="translate(230.94,159.3)"
                 d="M 3,0 A 3,3 0 1 1 0,-3 3,3 0 0 1 3,0 Z"
                 style="opacity:1;fill:#a1a1aa;fill-opacity:1;stroke-width:0px"
                 id="path43" />
              <path
                 class="point"
                 transform="translate(247.58,159.3)"
                 d="M 3,0 A 3,3 0 1 1 0,-3 3,3 0 0 1 3,0 Z"
                 style="opacity:1;fill:#a1a1aa;fill-opacity:1;stroke-width:0px"
                 id="path44" />
              <path
                 class="point"
                 transform="translate(228.59,159.3)"
                 d="M 3,0 A 3,3 0 1 1 0,-3 3,3 0 0 1 3,0 Z"
                 style="opacity:1;fill:#a1a1aa;fill-opacity:1;stroke-width:0px"
                 id="path45" />
              <path
                 class="point"
                 transform="translate(235.18,159.3)"
                 d="M 3,0 A 3,3 0 1 1 0,-3 3,3 0 0 1 3,0 Z"
                 style="opacity:1;fill:#a1a1aa;fill-opacity:1;stroke-width:0px"
                 id="path46" />
              <path
                 class="point"
                 transform="translate(244.76,110.7)"
                 d="M 3,0 A 3,3 0 1 1 0,-3 3,3 0 0 1 3,0 Z"
                 style="opacity:1;fill:#a1a1aa;fill-opacity:1;stroke-width:0px"
                 id="path47" />
              <path
                 class="point"
                 transform="translate(237.59,110.7)"
                 d="M 3,0 A 3,3 0 1 1 0,-3 3,3 0 0 1 3,0 Z"
                 style="opacity:1;fill:#a1a1aa;fill-opacity:1;stroke-width:0px"
                 id="path48" />
              <path
                 class="point"
                 transform="translate(242.14,110.7)"
                 d="M 3,0 A 3,3 0 1 1 0,-3 3,3 0 0 1 3,0 Z"
                 style="opacity:1;fill:#a1a1aa;fill-opacity:1;stroke-width:0px"
                 id="path49" />
              <path
                 class="point"
                 transform="translate(233.97,62.1)"
                 d="M 3,0 A 3,3 0 1 1 0,-3 3,3 0 0 1 3,0 Z"
                 style="opacity:1;fill:#a1a1aa;fill-opacity:1;stroke-width:0px"
                 id="path50" />
              <path
                 class="point"
                 transform="translate(229.2,62.1)"
                 d="M 3,0 A 3,3 0 1 1 0,-3 3,3 0 0 1 3,0 Z"
                 style="opacity:1;fill:#a1a1aa;fill-opacity:1;stroke-width:0px"
                 id="path51" />
              <path
                 class="point"
                 transform="translate(241.83,62.1)"
                 d="M 3,0 A 3,3 0 1 1 0,-3 3,3 0 0 1 3,0 Z"
                 style="opacity:1;fill:#a1a1aa;fill-opacity:1;stroke-width:0px"
                 id="path52" />
              <path
                 class="point"
                 transform="translate(233.98,13.5)"
                 d="M 3,0 A 3,3 0 1 1 0,-3 3,3 0 0 1 3,0 Z"
                 style="opacity:1;fill:#a1a1aa;fill-opacity:1;stroke-width:0px"
                 id="path53" />
            </g>
          </g>
        </g>
      </g>
      <g
         class="overplot"
         id="g57" />
      <path
         class="xlines-above crisp"
         d="M 0,0"
         style="fill:none"
         id="path57" />
      <path
         class="ylines-above crisp"
         d="M 0,0"
         style="fill:none"
         id="path58" />
      <g
         class="overlines-above"
         id="g58" />
      <g
         class="xaxislayer-above"
         id="g61">
        <g
           class="xtick"
           id="g59">
          <text
             text-anchor="middle"
             x="0"
             y="383"
             transform="translate(207.33)"
             style="font-size:12px;font-family:'Open Sans', verdana, arial, sans-serif;white-space:pre;opacity:1;fill:#444444;fill-opacity:1"
             id="text58">Group A</text>
        </g>
        <g
           class="xtick"
           id="g60">
          <text
             text-anchor="middle"
             x="0"
             y="383"
             transform="translate(405.54)"
             style="font-size:12px;font-family:'Open Sans', verdana, arial, sans-serif;white-space:pre;opacity:1;fill:#444444;fill-opacity:1"
             id="text59">Group B</text>
        </g>
      </g>
      <g
         class="yaxislayer-above"
         id="g68">
        <g
           class="ytick"
           id="g62">
          <text
             text-anchor="end"
             x="79"
             y="4.1999998"
             transform="translate(0,356.5)"
             style="font-size:12px;font-family:'Open Sans', verdana, arial, sans-serif;white-space:pre;opacity:1;fill:#444444;fill-opacity:1"
             id="text61">0</text>
        </g>
        <g
           class="ytick"
           id="g63">
          <text
             text-anchor="end"
             x="79"
             y="4.1999998"
             style="font-size:12px;font-family:'Open Sans', verdana, arial, sans-serif;white-space:pre;opacity:1;fill:#444444;fill-opacity:1"
             transform="translate(0,307.9)"
             id="text62">1</text>
        </g>
        <g
           class="ytick"
           id="g64">
          <text
             text-anchor="end"
             x="79"
             y="4.1999998"
             style="font-size:12px;font-family:'Open Sans', verdana, arial, sans-serif;white-space:pre;opacity:1;fill:#444444;fill-opacity:1"
             transform="translate(0,259.3)"
             id="text63">2</text>
        </g>
        <g
           class="ytick"
           id="g65">
          <text
             text-anchor="end"
             x="79"
             y="4.1999998"
             style="font-size:12px;font-family:'Open Sans', verdana, arial, sans-serif;white-space:pre;opacity:1;fill:#444444;fill-opacity:1"
             transform="translate(0,210.7)"
             id="text64">3</text>
        </g>
        <g
           class="ytick"
           id="g66">
          <text
             text-anchor="end"
             x="79"
             y="4.1999998"
             style="font-size:12px;font-family:'Open Sans', verdana, arial, sans-serif;white-space:pre;opacity:1;fill:#444444;fill-opacity:1"
             transform="translate(0,162.1)"
             id="text65">4</text>
        </g>
        <g
           class="ytick"
           id="g67">
          <text
             text-anchor="end"
             x="79"
             y="4.1999998"
             style="font-size:12px;font-family:'Open Sans', verdana, arial, sans-serif;white-space:pre;opacity:1;fill:#444444;fill-opacity:1"
             transform="translate(0,113.5)"
             id="text66">5</text>
        </g>
      </g>
      <g
         class="overaxes-above"
         id="g69" />
    </g>
  </g>
  <g
     class="polarlayer"
     id="g72" />
  <g
     class="smithlayer"
     id="g73" />
  <g
     class="ternarylayer"
     id="g74" />
  <g
     class="geolayer"
     id="g75" />
  <g
     class="funnelarealayer"
     id="g76" />
  <g
     class="pielayer"
     id="g77" />
  <g
     class="iciclelayer"
     id="g78" />
  <g
     class="treemaplayer"
     id="g79" />
  <g
     class="sunburstlayer"
     id="g80" />
  <g
     class="glimages"
     id="g81" />
  <defs
     id="topdefs-32ca02">
    <g
       class="clips"
       id="g82" />
    <clipPath
       id="legend32ca02">
      <rect
         width="92"
         height="48"
         x="0"
         y="0"
         id="rect82" />
    </clipPath>
  </defs>
  <g
     class="layer-above"
     id="g85">
    <g
       class="imagelayer"
       id="g83" />
    <g
       class="shapelayer"
       id="g84" />
  </g>
  <g
     class="infolayer"
     id="g104"
     transform="translate(-14.282479,-90.880061)">
    <g
       class="legend"
       pointer-events="all"
       transform="translate(535.94,100)"
       id="g100">
      <rect
         class="bg"
         shape-rendering="crispEdges"
         width="92"
         height="48"
         x="0"
         y="0"
         style="fill:#ffffff;fill-opacity:1;stroke:#444444;stroke-width:0px;stroke-opacity:1"
         id="rect85" />
      <g
         class="scrollbox"
         clip-path="url(#legend32ca02)"
         id="g99">
        <g
           class="groups"
           id="g98">
          <g
             class="traces"
             transform="translate(0,14.5)"
             style="opacity:1"
             id="g91">
            <text
               class="legendtext"
               text-anchor="start"
               x="40"
               y="4.6799998"
               style="font-size:12px;font-family:'Open Sans', verdana, arial, sans-serif;white-space:pre;fill:#444444;fill-opacity:1"
               id="text85">Group A</text>
            <g
               class="layers"
               style="opacity:1"
               id="g90">
              <g
                 class="legendfill"
                 id="g86" />
              <g
                 class="legendlines"
                 id="g87" />
              <g
                 class="legendsymbols"
                 id="g89">
                <g
                   class="legendpoints"
                   id="g88">
                  <path
                     class="legendbox"
                     d="M 6,6 H -6 V -6 H 6 Z"
                     transform="translate(20)"
                     style="fill:#3730a3;fill-opacity:0.5;stroke:#3730a3;stroke-width:2px;stroke-opacity:1"
                     id="path87" />
                </g>
              </g>
            </g>
            <rect
               class="legendtoggle"
               x="0"
               y="-9.5"
               width="86.478516"
               height="19"
               style="fill:#000000;fill-opacity:0"
               id="rect90" />
          </g>
          <g
             class="traces"
             transform="translate(0,33.5)"
             style="opacity:1"
             id="g97">
            <text
               class="legendtext"
               text-anchor="start"
               x="40"
               y="4.6799998"
               style="font-size:12px;font-family:'Open Sans', verdana, arial, sans-serif;white-space:pre;fill:#444444;fill-opacity:1"
               id="text91">Group B</text>
            <g
               class="layers"
               style="opacity:1"
               id="g96">
              <g
                 class="legendfill"
                 id="g92" />
              <g
                 class="legendlines"
                 id="g93" />
              <g
                 class="legendsymbols"
                 id="g95">
                <g
                   class="legendpoints"
                   id="g94">
                  <path
                     class="legendbox"
                     d="M 6,6 H -6 V -6 H 6 Z"
                     transform="translate(20)"
                     style="fill:#a1a1aa;fill-opacity:0.5;stroke:#a1a1aa;stroke-width:2px;stroke-opacity:1"
                     id="path93" />
                </g>
              </g>
            </g>
            <rect
               class="legendtoggle"
               x="0"
               y="-9.5"
               width="86.478516"
               height="19"
               style="fill:#000000;fill-opacity:0"
               id="rect96" />
          </g>
        </g>
      </g>
      <rect
         class="scrollbar"
         rx="20"
         ry="3"
         width="0"
         height="0"
         x="0"
         y="0"
         style="fill:#808ba4;fill-opacity:1"
         id="rect99" />
    </g>
    <g
       class="g-xtitle"
       id="g102" />
    <g
       class="g-ytitle"
       id="g103">
      <text
         class="ytitle"
         transform="rotate(-90,42,235)"
         x="42"
         y="235"
         text-anchor="middle"
         style="font-weight:normal;font-size:14px;font-family:'Open Sans', verdana, arial, sans-serif;white-space:pre;opacity:1;fill:#444444"
         id="text102">Count</text>
    </g>
  </g>
</svg>
